<svg width="215" height="275" viewBox="0 0 215 275" fill="none" xmlns="http://www.w3.org/2000/svg">
<path d="M145.59 67.9261L145.9 67.4758C147.265 68.6888 148.59 70.1589 149.881 71.461C150.284 71.868 152.269 73.6945 152.478 73.9923C155.029 77.6268 155.162 79.5071 159.541 81.3641L159.987 81.3221L160.655 80.9133C161.368 82.1823 163.838 84.226 165.083 85.0075L165.343 84.9731L165.453 84.4795C165.596 84.616 165.52 84.5265 165.654 84.8056L165.768 85.0489C165.705 84.61 165.76 84.1133 165.786 83.6647C168.073 90.5388 175.551 95.7737 180.122 101.088C182.024 103.975 183.844 105.475 186.25 107.832C188.794 110.323 191.094 114.008 192.996 117.059C197.213 123.826 198.919 132.079 201.019 139.667C201.758 142.335 200.424 148.225 201.449 150.241L201.669 150.238C202.624 148.386 204.283 141.13 204.618 138.924C204.747 138.071 204.726 133.197 204.725 132.183C204.837 132.434 204.752 132.352 204.946 132.461L205.003 132.588L205.119 132.25L205.399 132.222C205.402 133.079 205.391 133.263 205.642 134.072L205.808 133.991C206.098 132.524 206.146 131.494 205.986 130.013L206.569 129.378L206.867 129.378C207.186 128.908 207.852 126.254 208.327 125.301L209.025 125.403L209.211 125.674L209.581 125.518L209.852 126.376C208.703 128.267 207.986 129.54 207.363 131.701C208.592 130.507 209.542 129.17 210.668 127.87L211.043 128.248C207.972 131.664 207.919 132.161 206.412 136.548L208.505 134.772L209.179 135.065C208.31 135.655 207.579 136.351 206.798 137.052C206.127 139.184 205.869 142.726 205.194 145.307C204.24 148.955 202.259 153.53 201.547 157.009C200.43 162.468 200.543 165.714 198.068 171.119C195.934 175.779 193.213 180.069 190.094 184.161C188.611 185.938 186.755 187.534 185.443 189.448C184.006 191.547 182.699 193.72 181.205 195.79C179.3 198.433 177.909 201.507 176.146 204.248C172.485 209.942 169.064 215.789 166.299 221.978C165.8 223.096 164.531 225.609 162.912 224.629C162.828 224.578 162.75 224.518 162.678 224.449C162.365 224.157 162.208 223.763 162.162 223.342C162.019 222.041 165.206 217.563 166.041 216.162C170.281 209.041 174.974 202.232 178.822 194.878C179.733 193.136 180.725 191.407 181.467 189.584C182.464 187.137 182.957 184.521 183.741 182.002C184.704 178.906 185.963 176.063 185.318 172.755C184.622 169.182 180.988 161.899 178.492 159.156C177.819 158.417 176.922 157.87 176.1 157.311C173.671 157.275 172.844 158.17 170.795 158.141C168.565 158.109 167.607 154.853 165.415 154.412C163.253 153.977 160.376 154.805 158.462 154.643C155.633 154.401 152.328 149.719 150.646 147.683L146.786 143.072L145.634 141.525L144.337 139.348C142.524 136.069 141.325 133.741 137.538 132.937C137.126 132.849 136.4 132.687 136.128 132.419C136.168 131.507 138.011 130.338 138.769 129.927L138.875 130.195L138.602 130.462C139.414 130.179 140.311 129.544 141.11 129.974C139.373 130.593 138.757 130.822 137.194 131.789C139.924 131.957 142.587 131.645 145.307 132.152C147.965 132.647 150.305 133.963 152.708 135.142C155.01 136.272 161.285 138.677 162.633 140.486C163.038 140.641 162.837 140.623 163.255 140.557C163.229 139.976 161.812 138.092 161.433 137.564L161.716 137.053C163.428 139.533 166.221 142.981 168.43 145.075C170.644 147.175 172.743 148.657 174.903 151.013C174.496 149.841 173.67 148.329 173.093 147.19C171.871 143.896 169.002 140.099 167.251 137.026C165.56 134.057 164.352 130.698 161.878 128.256C161.073 127.462 158.989 127.837 157.902 127.948C158.271 127.801 158.642 127.625 159.005 127.461L158.908 127.182L159.092 127.214C158.788 127.115 158.547 127.055 158.237 126.977C161.802 126.493 163.572 126.614 166.589 128.927C167.042 129.274 168.414 130.41 168.792 130.622C169.054 129.526 168.368 127.096 169.227 126.121C170.082 126.086 169.77 126.63 170.52 126.595C170.693 125.672 169.907 123.226 170.006 121.88C170.221 118.94 171.639 117.897 171.362 114.807C171.174 112.71 168.565 107.934 169.201 106.464C170.036 106.505 171.668 109.855 172.474 110.386C176.528 113.055 180.42 111.962 184.389 115.329C189.082 119.312 189.483 121.276 190.208 127.022C190.73 126.407 190.993 125.989 191.753 125.861C191.906 125.955 192.116 126.096 192.182 126.282C193.446 129.854 194.516 134.087 194.468 137.858C194.444 139.753 194.099 141.354 193.946 143.193C193.856 144.283 194.169 145.363 193.8 146.235C193.332 147.342 192.366 148.445 191.813 149.53C190.331 152.433 189.656 155.492 189.128 158.676C188.954 159.728 188.557 161.776 188.605 162.8C188.749 165.863 189.129 168.693 188.807 171.782C188.485 174.873 187.479 177.364 186.561 180.298C185.582 183.446 184.633 186.603 183.714 189.768C185.643 187.157 186.917 185.661 189.134 183.216C189.835 182.443 191.766 179.537 192.387 178.581C195.062 174.473 197.396 169.709 198.416 164.891C198.802 163.068 199.047 160.711 199.333 158.838C199.597 157.109 200.261 153.695 200.139 152.107C200.034 150.741 199.072 150.096 199.008 147.831C198.917 144.548 199.447 141.811 198.736 138.589C198.158 135.97 197.235 134.077 196.427 131.561C195.832 129.702 195.475 127.889 194.75 125.99C192.395 119.822 188.398 113.563 183.837 108.807C182.203 107.266 180.225 105.982 178.515 104.546C175.829 102.289 173.545 99.8346 170.202 98.5473C168.086 97.7327 166.259 97.7475 164.019 97.7723C162.375 97.7907 160.828 97.7729 159.237 98.2811C157.186 98.9301 155.238 99.9337 153.317 100.898C152.029 101.553 150.528 102.375 149.354 103.195C146.865 104.933 147.095 106.549 144.158 107.222C143.83 107.675 143.935 107.554 143.919 108.228L143.544 108.04C143.337 107.754 143.136 107.626 142.86 107.412C142.793 105.141 142.604 103.957 142.366 101.738C143.105 99.9431 144.387 99.1309 145.467 97.4244C143.503 98.5935 142.322 99.9057 140.879 101.608L140.502 101.204C140.874 100.664 142.181 99.5028 141.99 99.021C141.219 99.3095 140.693 99.9175 140.199 100.553L139.749 100.242L139.8 99.8477C139.327 99.7481 137.62 100.669 137.16 100.958L136.98 100.422C136.712 100.282 136.862 100.341 136.522 100.261C131.804 101.019 127.408 105.962 124.415 109.461C123.196 110.887 122.122 114.429 121.368 116.203C121.601 116.573 121.441 116.427 121.915 116.588C121.434 116.908 121.427 116.804 121.227 117.247C118.813 117.703 118.787 117.945 116.701 118.795C113.572 120.359 111.865 123.484 110.497 124.27L110.371 124.065C110.56 122.928 111.93 120.535 112.457 118.568C112.903 115.124 113.826 110.732 113.862 107.406C113.917 102.179 115.654 101.405 120 99.5669C120.745 97.8024 121.305 96.7273 123.011 95.6296C125.147 94.2551 127.565 93.3157 130.064 92.8721C133.05 92.4379 136.007 93.4572 138.977 93.5376C140.025 93.6148 141.251 93.4415 142.279 93.57C146.193 94.0594 149.388 92.8374 153.324 93.6273C155.266 94.1336 158.824 95.1499 160.718 95.4236C164.285 95.9388 168.254 95.6445 171.793 96.971C173.228 97.5085 173.737 98.2277 174.992 98.8074L175.14 98.7226C174.595 97.606 171.34 94.837 170.373 93.6722C169.518 92.6433 167.874 90.3717 166.944 89.5512C162.291 85.4453 155.137 84.713 149.246 83.9634C148.485 84.0938 147.168 84.0269 146.339 84.1232C143.24 84.4836 140.07 85.4012 137.044 84.2369C136.946 84.1989 136.013 84.1549 135.761 84.1188L135.747 84.0092C137.338 82.3557 144.278 81.4857 146.846 81.0709C147.877 80.7644 149.171 80.7321 149.846 80.0419C150.277 79.9478 150.455 79.7182 150.84 79.437L151.073 79.2696L151.243 79.2948C152.055 79.4213 153.017 79.8186 153.573 79.6277L153.922 78.7977C154.446 78.9545 154.218 78.9901 154.639 78.7919C154.552 78.3363 152.244 74.6614 151.91 74.3209C149.832 72.2015 147.721 69.9903 145.59 67.9261ZM171.347 156.785C172.367 156.408 173.365 155.974 174.353 155.608C175.372 155.783 176.055 155.918 177.05 156.192C174.045 152.265 172.437 152.271 168.002 150.073C164.235 148.79 161.512 148.244 157.475 148.338C156.672 148.357 154.751 148.495 154.144 148.465C156.444 146.679 165.835 148.492 168.407 149.745C169.056 149.87 172.413 151.501 173.277 151.885C166.135 143.121 157.595 141.728 147.085 140.382C146.471 140.168 146.546 140.077 146.065 140.24C146.06 140.769 146.954 141.742 147.332 142.22C150.15 145.486 153.518 149.374 156.757 152.249C159.021 154.26 162.709 152.411 165.333 152.814C168.299 153.221 168.816 155.846 171.347 156.785ZM140.502 101.204L140.879 101.608C142.322 99.9057 143.503 98.5935 145.467 97.4244C144.387 99.1309 143.105 99.9431 142.366 101.738C142.604 103.957 142.793 105.141 142.86 107.412C143.136 107.626 143.337 107.754 143.544 108.04C143.638 107.037 144.09 106.799 143.763 105.635L143.713 105.465L144.026 105.141C144.242 105.574 144.294 105.774 144.693 106.053C146.584 105.6 149.034 97.2314 152.824 97.0544L152.978 97.2047C152.583 97.6066 151.974 97.6991 151.413 97.8562C149.812 99.8374 148.95 100.424 147.813 102.724C150.639 100.714 153.036 99.4326 156.25 97.9891C157.095 97.6095 158.693 97.4571 159.823 96.9648L159.848 96.7636C158.063 96.2646 154.969 97.0446 153.067 96.6138C152.4 96.4629 152.129 96.47 151.457 96.4691L151.413 95.5329C152.223 95.297 153.942 95.4307 154.393 94.9905C153.91 94.6322 153.422 94.5925 152.824 94.4659C152.909 93.8756 152.817 94.0958 153.324 93.6273C149.388 92.8374 146.193 94.0594 142.279 93.57C141.251 93.4415 140.025 93.6148 138.977 93.5376C136.007 93.4572 133.05 92.4379 130.064 92.8721C127.565 93.3157 125.147 94.2551 123.011 95.6296C121.305 96.7273 120.745 97.8024 120 99.5669C115.654 101.405 113.917 102.179 113.862 107.406C113.826 110.732 112.903 115.124 112.457 118.568C111.93 120.535 110.56 122.928 110.371 124.065L110.497 124.27C111.865 123.484 113.572 120.359 116.701 118.795C118.787 117.945 118.813 117.703 121.227 117.247C121.427 116.804 121.434 116.908 121.915 116.588C121.441 116.427 121.601 116.573 121.368 116.203C122.122 114.429 123.196 110.887 124.415 109.461C127.408 105.962 131.804 101.019 136.522 100.261C136.862 100.341 136.712 100.282 136.98 100.422L137.16 100.958C137.62 100.669 139.327 99.7481 139.8 99.8477L139.749 100.242L140.199 100.553C140.693 99.9175 141.219 99.3095 141.99 99.021C142.181 99.5028 140.874 100.664 140.502 101.204ZM162.344 127.792C163.279 128.972 164.242 130.15 164.997 131.458C165.909 133.036 166.659 134.703 167.561 136.287C168.659 138.214 169.958 140.023 171.1 141.923C172.09 143.569 172.838 145.345 173.83 146.99C174.483 148.13 175.248 150.707 176.201 152.058C177.434 153.805 178.671 155.191 179.888 156.976C179.394 154.191 178.468 150.315 178.187 147.649C173.845 144.248 170.524 140.88 168.859 135.457C168.512 134.325 168.913 132.597 168.501 131.608C165.983 129.987 165.536 128.689 162.344 127.792ZM183.911 130.548C183.812 130.843 185.235 137.744 185.49 138.224C185.876 137.915 185.787 136.457 185.821 135.873C185.962 133.493 187.071 132.038 188.356 130.106C190.044 127.568 189.302 126.941 188.877 124.302C188.102 119.497 183.542 115.293 179.086 113.841C177.149 113.21 174.332 113.222 172.504 111.837C172.273 111.662 172.322 111.724 171.992 111.722C171.985 113.15 172.989 116.185 172.838 117.128C172.526 119.076 171.425 121.339 171.426 123.562C171.427 124.692 171.629 126.512 172.285 127.442C173.374 128.945 175.403 129.628 176.803 130.748C179.144 132.622 181.055 135.084 182.768 137.521C183.434 138.469 183.637 139.456 184.471 140.338L184.657 140.259C184.718 138.867 183.982 136.751 183.704 135.33C182.524 129.28 179.031 126.729 174.459 123.188L174.81 122.991C176.153 123.249 179.642 126.662 180.73 127.719L180.932 127.627C180.729 126.203 176.871 119.34 175.965 117.722C175.134 116.24 173.538 114.831 173.274 113.222L173.433 113.182C175.421 115.232 179.561 122.665 180.694 125.251C181.718 127.586 181.303 127.833 183.132 130.528L183.572 130.589C183.018 127.49 183.198 125.21 182.734 122.129C182.561 120.978 181.575 119.404 181.572 118.435C183.699 119.028 183.577 128.071 183.924 130.075C183.955 130.255 183.941 130.372 183.911 130.548ZM186.183 154.809C185.588 149.212 183.217 145.849 179.35 141.74C178.713 141.233 178.107 140.707 177.489 140.177L177.746 139.784C178.808 140.497 179.199 140.715 180.064 141.648C182.597 143.396 183.835 146.536 185.537 148.938C185.305 147.718 185.01 143.38 184.859 142.972C183.433 139.114 178.603 133.622 175.312 131.308C173.538 130.061 172.167 129.851 170.217 128.093C170.093 130.232 169.908 132.43 170.339 134.512C171.339 139.328 174.667 143.158 178.598 145.925C180.237 147.078 182.141 148.191 183.419 149.753C184.515 151.17 185.422 153.173 186.183 154.809ZM192.726 135.648L192.517 135.528C193.566 133.984 192.082 130.052 191.642 128.205C190.97 129.219 188.869 132.369 188.421 133.457C187.458 135.8 186.781 140.666 186.504 143.31C186.449 143.837 186.853 146.039 186.965 146.671C188.336 143.925 188.869 141.513 190.715 138.719L191.179 139.018C189.34 142.554 187.213 146.553 187.58 150.594C187.674 151.628 187.854 156.196 188.424 156.71C189.048 155.463 189.154 152.107 190.105 150.492C190.43 149.939 192.734 145.308 192.733 145.3C192.517 143.569 193.771 136.696 193.094 135.616L192.726 135.648ZM179.325 148.521C180.248 155.757 181.078 160.267 185.074 166.263C185.51 166.918 186.318 169.22 186.789 169.506C186.853 169.294 186.893 169.269 186.873 169.071C186.698 163.118 185.94 154.706 181.527 150.036C181.149 149.636 179.837 148.639 179.325 148.521ZM150.603 83.2957C154.063 83.1161 161.045 85.0161 164.314 86.4412C164.058 86.1384 163.779 85.8566 163.478 85.5985C159.912 82.4759 156.877 81.3741 152.053 81.2831C151.08 81.2648 149.296 81.6204 148.142 81.6861L147.954 81.6955C146.618 81.9142 138.777 82.9244 138.235 83.8217C139.299 85.0731 144.718 83.5506 146.163 83.3622C147.755 83.1544 148.997 83.1328 150.603 83.2957ZM162.576 141.15C160.125 139.191 149.328 133.765 146.307 133.017C143.936 132.432 141.549 132.416 139.126 132.426C142.327 134.806 142.804 134.253 144.875 138.287C145.088 138.632 145.557 139.343 145.713 139.677L147.502 139.736C151.498 140.766 161.339 141.778 164.657 143.557L164.948 143.52C164.849 142.928 163.091 141.58 162.576 141.15Z" fill="#E1D2BD"/>
<path d="M120 99.5669C120.745 97.8024 121.305 96.7273 123.011 95.6296C125.147 94.2551 127.565 93.3157 130.064 92.8721C133.05 92.4379 136.007 93.4572 138.977 93.5377C140.025 93.6148 141.251 93.4415 142.279 93.57C146.193 94.0594 149.388 92.8374 153.324 93.6273C152.817 94.0958 152.909 93.8756 152.824 94.4659C150.809 93.785 146.219 94.8124 143.999 94.8746C141.926 94.9267 139.829 94.9704 137.756 94.9265C135.269 94.8742 132.379 93.7859 129.903 94.1049C127.568 94.4056 124.193 95.8297 122.365 97.2916L121.822 97.7231C122.738 97.529 124.236 97.1331 125.116 97.473C123.02 98.1102 122.375 97.529 121.271 99.2615C119.457 102.108 114.628 101.194 114.93 105.871L115.101 106C118.341 104.328 122.934 103.365 126.51 102.797C127.471 102.645 128.938 102.574 129.938 102.384C131.814 101.413 133.239 100.257 135.401 99.7419C136.136 99.5671 139.851 98.3308 140.155 98.1069C139.31 96.807 128.17 98.5147 126.765 97.7116C127.401 96.7687 129.315 97.4162 130.238 97.3647C132.433 97.1917 134.655 97.104 136.847 96.9526C137.984 96.8743 139.945 97.4815 140.781 97.3713C144.39 96.895 147.751 95.9274 151.413 95.5329L151.457 96.4691C147.558 97.0559 144.924 98.5888 143.356 102.389C143.53 103.326 143.649 104.274 144.026 105.141L143.713 105.465L143.763 105.635C144.09 106.799 143.638 107.037 143.545 108.04C143.337 107.754 143.136 107.626 142.86 107.412C142.793 105.141 142.604 103.957 142.366 101.738C143.105 99.9431 144.387 99.1309 145.467 97.4244C143.503 98.5935 142.322 99.9058 140.879 101.608L140.502 101.204C140.874 100.664 142.181 99.5028 141.99 99.021C141.219 99.3095 140.693 99.9175 140.199 100.553L139.749 100.242L139.8 99.8477C139.327 99.7482 137.62 100.669 137.16 100.958L136.98 100.422C136.712 100.282 136.863 100.341 136.522 100.261C131.804 101.019 127.408 105.962 124.415 109.461C123.196 110.887 122.122 114.429 121.368 116.203C121.601 116.573 121.441 116.427 121.915 116.588C121.434 116.908 121.427 116.804 121.227 117.247C118.813 117.703 118.787 117.945 116.701 118.795C113.572 120.359 111.866 123.484 110.497 124.27L110.371 124.065C110.56 122.928 111.93 120.535 112.457 118.568C112.903 115.124 113.826 110.732 113.862 107.406C113.917 102.179 115.654 101.405 120 99.5669ZM114.227 112.702C115.937 111.266 118.361 110.111 120.603 109.987L120.9 110.223C120.355 110.545 119.479 110.815 118.853 111.028C116.877 111.7 116.081 112.019 114.34 113.19C113.945 114.497 113.52 118.031 113.31 118.486C113.186 119.042 113.024 119.249 113.219 119.644C113.922 119.05 114.864 117.147 115.959 116.08C117.808 114.279 119.856 112.859 121.555 110.988C121.896 110.518 122.114 110.324 122.536 109.916L122.638 109.395C123.69 108.473 129.043 103.999 129.147 103.024C128.696 102.959 127.431 103.255 126.877 103.344C122.546 104.039 118.771 105.077 114.744 106.807C114.896 109.025 114.59 110.541 114.227 112.702ZM115.224 118.785C116.153 117.856 119.2 116.88 120.493 116.539C120.824 115.733 122.64 111.576 122.543 111.061L122.336 111.163C120.503 113.181 115.089 117.006 114.763 118.89L115.024 118.979L115.224 118.785Z" fill="#E1D2BD"/>
<path d="M120.603 109.987C121.397 109.352 121.765 108.741 122.638 109.395L122.536 109.916L122.014 110.038C121.777 109.874 121.792 109.886 121.515 109.744L120.9 110.223L120.603 109.987Z" fill="#E1D2BD" fill-opacity="0.0627451"/>
<path d="M121.555 110.988L122.336 111.163C120.503 113.181 115.089 117.006 114.763 118.89L115.023 118.979L115.224 118.785C115.925 118.943 115.975 118.916 116.701 118.795C113.572 120.359 111.865 123.484 110.497 124.27L110.371 124.065C110.56 122.928 111.93 120.535 112.457 118.568L113.31 118.486C113.186 119.042 113.024 119.249 113.219 119.644C113.922 119.05 114.864 117.147 115.959 116.08C117.808 114.279 119.856 112.859 121.555 110.988Z" fill="#E1D2BD"/>
<path d="M144.337 139.348C142.524 136.069 141.325 133.741 137.538 132.937C137.126 132.849 136.4 132.687 136.128 132.419C136.168 131.507 138.012 130.338 138.769 129.927L138.875 130.195L138.602 130.462C139.414 130.179 140.311 129.544 141.11 129.974C139.373 130.593 138.757 130.822 137.194 131.789C139.924 131.957 142.587 131.645 145.307 132.152C147.965 132.647 150.305 133.963 152.708 135.142C155.01 136.272 161.285 138.677 162.633 140.486L162.576 141.15C160.125 139.191 149.328 133.765 146.307 133.017C143.936 132.432 141.549 132.417 139.126 132.426C142.327 134.807 142.804 134.253 144.875 138.287C144.672 138.638 144.437 138.971 144.337 139.348Z" fill="#E1D2BD"/>
<path d="M158.237 126.977C161.802 126.493 163.572 126.614 166.589 128.927C167.042 129.274 168.414 130.41 168.792 130.622C168.509 130.929 168.577 131.103 168.501 131.608C165.983 129.987 165.536 128.689 162.344 127.792C163.279 128.972 164.242 130.15 164.997 131.458C165.909 133.036 166.659 134.703 167.561 136.287C168.659 138.214 169.958 140.023 171.1 141.923C172.09 143.569 172.838 145.345 173.83 146.99L173.093 147.19C171.871 143.896 169.002 140.099 167.251 137.026C165.56 134.057 164.352 130.698 161.878 128.256C161.073 127.462 158.989 127.837 157.902 127.948C158.271 127.801 158.642 127.625 159.005 127.461L158.908 127.182L159.092 127.214C158.788 127.115 158.547 127.055 158.237 126.977Z" fill="#E1D2BD"/>
<path d="M149.246 83.9634C148.485 84.0939 147.168 84.0269 146.339 84.1233C143.24 84.4837 140.07 85.4012 137.044 84.2369C136.946 84.199 136.013 84.1549 135.761 84.1188L135.747 84.0092C137.338 82.3557 144.278 81.4858 146.846 81.0709L147.954 81.6955C146.618 81.9142 138.777 82.9244 138.235 83.8217C139.299 85.0731 144.718 83.5507 146.163 83.3622C147.755 83.1545 148.997 83.1329 150.603 83.2958C150.059 83.4752 149.095 83.8075 148.581 83.5772L148.82 83.4809L148.538 83.6192L148.652 83.8052L148.671 83.5846C149.065 83.7723 149.115 83.6994 149.246 83.9634Z" fill="#E1D2BD"/>
<path d="M168.002 150.073C164.235 148.79 161.512 148.244 157.475 148.338C156.672 148.357 154.751 148.495 154.144 148.465C156.444 146.679 165.835 148.493 168.407 149.745L168.002 150.073Z" fill="#E1D2BD"/>
<path d="M144.875 138.287C145.088 138.632 145.557 139.343 145.713 139.677L147.502 139.736L147.085 140.382C146.471 140.168 146.546 140.077 146.065 140.24C146.06 140.769 146.954 141.742 147.332 142.22C147.145 142.602 147.092 142.767 146.786 143.072L145.634 141.525L144.337 139.348C144.437 138.971 144.672 138.638 144.875 138.287Z" fill="#E1D2BD" fill-opacity="0.796078"/>
<path d="M144.875 138.287C145.088 138.632 145.557 139.343 145.713 139.677C145.508 140.522 145.529 140.657 145.634 141.525L144.337 139.348C144.437 138.971 144.672 138.638 144.875 138.287Z" fill="#E1D2BD"/>
<path d="M183.572 130.589C183.018 127.49 183.198 125.21 182.735 122.129C182.561 120.978 181.575 119.404 181.572 118.435C183.699 119.028 183.578 128.071 183.924 130.075C183.955 130.255 183.942 130.372 183.911 130.548L183.572 130.589Z" fill="#E1D2BD"/>
<path d="M177.489 140.177C176.619 139.665 172.036 136.111 171.854 135.367C172.503 135.383 176.651 139.001 177.746 139.784L177.489 140.177Z" fill="#E1D2BD" fill-opacity="0.878431"/>
<path d="M190.714 138.719C191.548 137.67 191.699 136.482 192.517 135.528L192.726 135.648C192.358 137.006 191.98 137.839 191.179 139.018L190.714 138.719Z" fill="#E1D2BD" fill-opacity="0.980392"/>
<path d="M177.746 139.784C178.808 140.497 179.199 140.715 180.064 141.648C179.719 141.67 179.68 141.653 179.35 141.74C178.713 141.233 178.107 140.707 177.489 140.177L177.746 139.784Z" fill="#E1D2BD"/>
<path d="M132.68 50.2423C130.814 49.4689 127.16 48.4464 125.824 47.2726C119.25 41.4948 116.574 29.3351 115.691 21.0254C115.527 18.7162 114.906 15.9929 115.428 13.7047C115.991 12.3043 116.947 6.80496 117.573 5.91321C121.078 0.920202 116.511 -0.904235 116.012 -6.0714L116.389 -6.30439C119.983 -3.31537 121.204 3.16917 124.649 6.60189C126.601 8.54772 128.581 9.02619 130.742 10.6084C133.323 12.5355 137.463 15.5944 138.726 18.5834C139.49 20.3918 141.55 25.443 141.864 27.2134L140.742 27.4089C139.935 25.8941 138.699 22.8557 138.269 21.2004L137.781 22.998C137.38 24.3757 136.915 25.7157 136.503 27.082C134.834 32.6136 134.198 39.2809 136.899 44.6059C137.492 45.7742 138.465 46.9637 138.956 48.132C138.544 47.8195 138.213 47.5791 137.781 47.2951L137.604 47.5535C137.453 47.2505 136.527 46.1869 136.272 46.0145C133.606 44.4585 131.363 42.1688 128.944 40.42C125.91 38.2275 124.049 36.7694 121.39 34.1325C120.499 33.5162 119.763 32.5876 119.045 31.763C120.165 36.3427 124.044 44.71 128.113 47.135C128.861 47.5809 132.916 49.534 133.907 49.9585L132.68 50.2423ZM130.123 28.9777C130.367 32.6032 130.47 34.8011 132.642 37.6365C133.185 38.3467 134.154 40.9689 134.992 41.3481C135.093 41.0498 134.39 38.5131 134.394 37.3435C134.413 31.259 135.316 28.4019 137.212 22.7229C137.484 21.962 137.632 21.2056 137.811 20.418C136.183 16.9413 132.38 12.8594 129.085 10.9672L128.73 11.1189L128.568 11.1184C128.078 9.84806 125.143 8.81091 124.091 7.63746C122.893 6.30108 122.134 4.84396 121.227 3.31233L120.989 3.26009L120.811 3.66622C121.593 5.61058 122.527 7.95423 123.004 9.98026C123.929 13.9104 124.109 16.6481 125.612 20.4102C125.922 21.2722 126.298 22.3122 126.441 23.2174C126.853 24.4428 127.049 25.1122 127.304 26.3732L126.464 26.726L125.848 24.6396C125.527 23.8447 119.567 17.7297 118.484 16.6377C117.832 15.9349 117.354 15.4176 116.63 14.7847C116.8 17.3188 116.537 19.9168 117.276 22.3711C117.297 22.4424 117.315 22.5148 117.338 22.5857C117.76 23.8961 124.921 29.0766 126.409 30.821L125.948 31.0851C124.362 29.8948 118.988 25.088 117.436 23.5775C117.999 26.2479 118.511 28.9539 119.087 31.6136C120.054 32.2126 120.329 32.3662 121.162 33.1324L121.37 33.3217C121.411 33.3602 121.452 33.3988 121.493 33.4373C124.371 36.2009 126.407 37.923 129.654 40.2614C131.984 41.9397 133.41 43.552 136.105 44.9972C133.71 41.6385 130.694 35.1062 127.976 32.9141L128.285 32.4668C128.659 32.6554 128.763 32.7716 129.151 32.7773C129.057 32.2707 128.98 32.2909 129.122 31.8574L129.317 31.9267L129.579 31.7984C129.775 31.1085 129.615 30.008 129.593 29.2219C129.366 27.3317 129.249 26.1842 128.939 24.2375C129.554 25.7594 129.706 26.0911 130.076 27.6477L130.123 28.9777ZM120.12 4.27941C119.174 5.46067 116.943 12.691 116.961 14.179C117.676 15.2585 118.513 15.5454 119.205 16.5834C120.076 17.4479 124.77 22.6264 125.246 22.7863L125.37 22.6468L125.233 21.7093C122.546 15.3908 122.744 9.84389 120.12 4.27941Z" fill="#E1D2BD"/>
<path d="M120.12 4.27944C120.393 4.09829 120.574 3.89516 120.811 3.66625C121.593 5.61061 122.527 7.95426 123.004 9.98029C123.929 13.9104 124.11 16.6482 125.612 20.4102C125.558 21.3158 125.709 21.1541 125.233 21.7094C122.546 15.3908 122.744 9.84392 120.12 4.27944Z" fill="#E1D2BD"/>
<path d="M128.568 11.1184L128.73 11.1189C129.526 15.9063 129.071 20.6292 129.89 25.4091C130.004 26.0786 130.036 26.9666 130.076 27.6477C129.706 26.0911 129.554 25.7594 128.939 24.2375C128.585 21.7687 128.811 19.9824 128.778 17.5381C128.745 15.1163 127.801 13.593 128.568 11.1184Z" fill="#E1D2BD" fill-opacity="0.984314"/>
<path d="M119.205 16.5834C120.076 17.4479 124.77 22.6264 125.246 22.7863L125.37 22.6468L125.233 21.7094C125.709 21.1541 125.558 21.3158 125.612 20.4102C125.922 21.2722 126.297 22.3122 126.441 23.2174C126.388 23.9973 126.559 24.239 125.848 24.6396C125.527 23.8447 119.567 17.7298 118.484 16.6378L119.205 16.5834Z" fill="#E1D2BD"/>
<path d="M126.464 26.726L127.304 26.3732C127.856 28.3746 129.013 29.9226 129.122 31.8574C128.98 32.2909 129.057 32.2707 129.151 32.7773C128.061 31.7196 127.193 28.3069 126.464 26.726Z" fill="#E1D2BD" fill-opacity="0.988235"/>
<path d="M129.593 29.2219C129.366 27.3317 129.249 26.1843 128.939 24.2375C129.554 25.7594 129.706 26.0911 130.076 27.6477L130.123 28.9777L129.593 29.2219Z" fill="#E1D2BD"/>
<path d="M125.949 31.0852L126.409 30.8211C127.408 31.512 127.563 31.9006 128.285 32.4669L127.976 32.9141C127.335 32.3799 126.579 31.6562 125.949 31.0852Z" fill="#E1D2BD" fill-opacity="0.972549"/>
<path d="M137.212 22.7229L137.781 22.998C137.38 24.3757 136.915 25.7157 136.503 27.082C134.834 32.6136 134.198 39.2809 136.899 44.6059C137.492 45.7742 138.465 46.9637 138.956 48.132C138.544 47.8195 138.213 47.5791 137.781 47.2951L137.604 47.5535C137.453 47.2505 136.527 46.1869 136.272 46.0145C133.606 44.4585 131.363 42.1688 128.944 40.42C125.91 38.2275 124.049 36.7694 121.39 34.1325L121.493 33.4373C124.371 36.2009 126.407 37.923 129.654 40.2614C131.984 41.9397 133.41 43.552 136.105 44.9972C133.71 41.6385 130.694 35.1062 127.976 32.9141L128.285 32.4668C128.659 32.6554 128.763 32.7716 129.151 32.7773C129.057 32.2707 128.98 32.2909 129.122 31.8574L129.317 31.9267L129.579 31.7984C129.775 31.1085 129.615 30.008 129.593 29.2219L130.123 28.9777C130.367 32.6032 130.47 34.8011 132.642 37.6365C133.185 38.3467 134.154 40.9689 134.992 41.3481C135.093 41.0498 134.39 38.5131 134.394 37.3435C134.413 31.259 135.316 28.4019 137.212 22.7229Z" fill="#E1D2BD"/>
<path d="M152.821 52.0793C150.982 47.9812 147.778 38.2751 147.395 33.6499C147.239 31.7795 149.37 29.5229 150.054 27.8667C150.726 26.2368 150.848 24.0507 151.585 22.3843C153.297 18.5098 156.727 15.4938 159.547 12.3954C160.508 11.34 161.496 10.1808 162.476 9.1835L163.26 9.61792C162.131 10.8908 160.865 12.3939 159.643 13.5482C160.006 15.0586 160.429 18.5175 161.172 19.546L161.488 19.6198L161.683 19.4063C161.658 19.3532 161.396 18.8118 161.396 18.8118C162.372 16.0871 163.025 13.0145 164.868 10.7164C164.209 13.2978 162.451 16.7675 161.659 19.8549C162.327 19.1175 163.272 18.0033 164.017 17.4181L164.41 17.7924C163.676 18.521 162.242 20.1953 161.702 20.9475C160.78 22.2324 158.425 31.5496 158.837 32.4814C159.134 32.3988 159.276 32.267 159.368 31.9512C159.652 30.9761 160.672 29.7898 160.976 28.9371L161.608 28.8466C158.7 34.152 157.611 35.2643 157.986 41.8304L157.084 41.4504C157.263 38.5718 156.132 36.7426 155.524 34.1113C154.641 30.2947 153.545 27.6972 151.72 24.2535C151.229 27.5455 150.817 28.8624 148.786 31.4899C151.689 33.3232 154.488 39.9504 155.435 43.2047L155.165 43.3001L154.882 43.2493L154.77 43.5081C153.631 39.9634 152.932 37.4898 150.687 34.3649C149.974 33.3729 149.23 32.6089 148.533 31.6966C147.571 35.7738 150.544 42.42 151.738 46.4469C152.069 47.5622 153.043 50.5929 153.63 51.441C153.212 51.9168 153.329 51.9346 152.821 52.0793ZM152.254 23.6175C152.806 25.4569 153.829 26.8173 154.497 28.5738C155.089 30.1329 155.614 31.7754 156.163 33.3518C156.524 34.3874 156.691 35.441 157.215 36.3965L157.431 36.4957C157.565 36.2125 158.175 31.3352 158.265 30.5993C159.515 26.5217 156.299 20.1289 156.848 17.5824C157.307 17.7792 158.825 25.8063 159.156 27.003C159.791 25.2654 160.397 22.58 160.793 20.7508C160.334 19.4369 160.026 18.3371 159.745 16.9858C159.59 16.2374 159.398 14.5374 158.969 14.1174C156.594 16.9495 153.088 20.0108 152.254 23.6175Z" fill="#E1D2BD"/>
<path d="M191.433 73.6732C191.693 74.3914 191.605 74.5364 192.273 74.8882C192.817 78.1186 192.844 81.451 193.741 84.5999C194.419 86.9854 195.688 88.7697 196.518 90.9064L196.729 90.9885L196.949 90.7024L197.61 90.4902C197.427 94.0817 199.256 97.031 200.104 100.662C200.348 100.906 200.222 100.878 200.469 100.884L201.073 101.152C200.911 103.119 201.194 107.31 202.33 108.778L202.879 108.93C203.347 108.61 203.152 108.561 203.457 108.275C203.369 109.335 203.201 110.291 203.129 111.324C203.037 112.673 203.211 113.991 203.156 115.351C203.763 114.13 204.154 113.35 204.898 112.221L205.232 113.098C203.007 116.968 205.858 124.834 206.569 129.378L205.986 130.013C205.791 129.206 205.529 126.84 204.987 126.386L204.665 126.558L204.468 127.102C204.385 126.952 203.868 124.645 203.707 124.113C203.391 122.606 203.202 120.416 202.857 119.03C201.803 114.782 200.954 110.347 199.09 106.362C198.511 105.124 196.956 102.732 196.209 101.46C196.511 101.139 196.528 101.06 196.752 100.684C197.017 101.395 198.884 104.179 199.359 104.822C198.268 100.438 197.886 96.486 195.641 92.4598C194.903 91.1373 194.602 90.0576 193.449 88.9539C193.599 88.8866 194.086 88.5566 194.253 88.4496C194.086 86.1243 191.908 82.7864 190.253 81.0617L191.132 81.0779C191.396 81.0093 191.272 81.05 191.498 80.7552C191.377 80.21 191.226 80.1286 190.827 79.7404L191.203 79.0859C191.348 79.507 191.318 79.5622 191.642 79.8442L191.872 79.7035C192.067 78.5932 191.642 74.9067 191.433 73.6732Z" fill="#E1D2BD"/>
<path d="M135.981 72.0791C133.911 69.674 131.78 68.035 129.026 66.5639C128.754 66.4186 128.777 66.2874 128.778 66.0386C129.743 65.8803 133.87 68.9916 134.628 69.7622C135.493 70.6406 136.275 71.6221 137.415 72.1769C139.733 73.3057 142.411 73.681 144.711 74.8423L144.116 75.382L142.468 74.8161C138.575 75.6281 134.647 76.7157 130.743 77.5427C129.581 77.7888 127.118 79.0634 126.041 78.8816C128.151 76.7717 135.935 76.5075 138.724 74.7702C139.15 74.5047 139.706 74.6375 140.171 74.1809C139.436 72.1611 125.784 75.4102 124.152 78.2308C124.15 78.4647 124.096 78.6907 124.324 78.8561C125.298 79.5611 127.185 80.5865 128.056 81.3594C131.418 84.3411 130.869 83.1423 134.552 81.64C136.594 80.8071 139.772 79.9362 141.95 79.1715C143.982 78.5839 146.592 79.0901 148.685 79.0719C149.561 79.0877 150.208 79.1186 151.073 79.2696L150.84 79.437C150.455 79.7183 150.277 79.9479 149.846 80.0419C148.672 79.954 144.542 79.4936 143.636 79.6522C139.54 80.3677 135.044 82.6481 131.095 83.9747C130.292 84.2444 128.183 82.5236 127.46 81.9478C126.393 81.0984 123.427 79.6877 123.245 78.4058C124.016 74.8608 135.244 73.5831 135.655 73.1704C135.449 72.8551 135.298 72.8394 134.942 72.7157C131.649 71.5719 127.622 73.2717 124.74 74.8578C123.705 75.4272 122.822 76.3492 121.459 77.0564L121.26 77.1587C119.912 77.0892 117.989 76.6055 116.401 76.4558L115.761 75.7824C117.049 75.8852 119.846 76.447 120.89 76.2102C123.021 75.727 124.499 73.7718 126.979 72.8033C128.974 72.0241 129.336 72.1231 131.345 71.6279C127.665 70.2723 120.821 70.7804 117.196 72.3326C116.386 72.6791 113.218 73.6241 112.433 73.6083C112.494 73.5154 112.555 73.4224 112.616 73.3294L112.734 73.1202C113.108 72.4364 114.184 72.5209 114.353 71.7916L113.637 71.3026C114.611 70.8602 116.076 70.2756 117.095 70.0063L117.32 70.5011C117.725 70.6003 117.813 70.5828 118.222 70.5835C116.661 71.109 116.123 71.3295 114.681 72.025C117.132 71.6802 118.599 71.0725 120.787 70.6114C125.223 69.6766 131.725 70.4759 135.981 72.0791Z" fill="#E1D2BD"/>
<path d="M162.477 9.18347C163.964 7.82974 165.659 6.84098 167.212 5.55497C168.768 4.26747 169.862 2.81651 171.549 1.70536C170.464 4.1554 169.217 6.16619 168.111 8.48414C166.143 12.6072 165.287 18.4462 166.935 22.8042C167.47 24.2193 168.546 25.9947 169.063 27.3793C170.506 31.2494 172.564 37.4447 170.616 41.3967C168.646 45.3943 163.952 49.3545 162.174 53.535L161.719 52.3995C162.487 50.6984 163.957 48.5756 165.053 47.0369C166.934 44.397 170.211 41.1277 169.84 37.5771L169.78 37.2692C169.733 36.4693 169.89 35.9228 169.794 35.1073C169.541 32.9562 168.696 31.1587 168.153 29.0397C167.387 30.1622 166.691 31.5051 165.771 32.4932L165.39 32.3155C165.789 31.6346 167.812 28.8068 167.825 28.4542C167.878 27.045 165.669 24.4533 165.162 22.9241C164.578 21.1613 164.524 19.5907 164.41 17.7924L164.017 17.4181C164.509 17.0003 165.046 12.4759 165.47 11.2841C166.172 9.30878 166.969 7.71239 167.895 5.85509C166.461 7.19792 164.78 8.33564 163.261 9.61789L162.477 9.18347Z" fill="#E1D2BD"/>
<path d="M156.93 57.9815C156.734 52.7959 154.581 47.6511 152.564 42.8613C152.148 41.8753 150.665 40.1913 150.515 39.5507C153.312 40.005 155.725 50.2181 156.912 52.6022C157.05 49.1681 156.082 46.5763 154.77 43.5081L154.882 43.2493L155.165 43.3001L155.435 43.2047C155.818 43.9139 156.311 45.3699 156.611 46.1817C156.881 44.6908 157.216 42.9467 157.084 41.4504L157.986 41.8304L158.267 42.3749L158.548 42.4411L159.297 42.4313C158.43 44.6908 157.462 46.8506 157.716 49.3282C157.775 49.909 157.647 50.5394 158.062 51.0107C158.314 50.8808 158.232 50.9733 158.34 50.7646L159.313 50.7428C157.883 53.9545 157.678 55.81 157.892 59.3306C157.936 60.0526 157.853 61.4054 158.209 62.0097C158.458 61.6865 159.544 57.6763 160.079 56.6259L160.714 56.8245C160.48 57.3854 159.568 59.5788 159.476 60.0295C159.11 61.8283 158.438 67.087 158.585 68.7378C158.419 69.0573 158.276 69.4315 158.136 69.7669C157.804 69.5305 157.616 68.6205 157.458 68.1323C157.323 67.4507 157.194 66.7038 157.154 66.012C156.913 61.807 155.852 57.8562 153.962 54.1022C155.195 54.3168 154.756 54.9526 155.748 55.5821C156.274 56.8619 156.178 56.8281 156.93 57.9815Z" fill="#E1D2BD"/>
<path d="M174.962 52.5449C175.089 52.5101 175.604 52.3595 175.7 52.3538L175.734 52.5854C176.017 54.5464 176.537 62.9984 177.424 64.2639L178.081 64.5916L177.965 64.9217L177.356 64.8057C176.515 65.4025 176.68 68.6888 176.391 69.9453L176.47 70.1123C176.289 72.0422 175.576 76.7893 176.28 78.2506C176.054 78.2282 177.542 78.3171 176.938 78.2312C182.037 78.9557 188.145 84.0139 192.429 86.921C193.144 87.4066 193.613 88.0265 194.253 88.4496C194.086 88.5566 193.599 88.8866 193.449 88.9539C190.842 86.198 179.909 78.2641 176.325 78.8042C175.509 81.6501 182.102 89.6168 184.185 91.6786L183.159 91.9255C181.265 89.8385 178.072 85.8401 176.731 83.3311C173.688 77.6367 175.961 69.6411 176.192 63.5127C176.264 61.6035 175.648 59.9311 175.419 58.0829C175.189 56.2173 175.147 54.3931 174.962 52.5449Z" fill="#E1D2BD"/>
<path d="M210.648 100.771C213.907 95.9987 220.77 95.5322 225.646 92.712C227.845 91.44 229.142 90.0964 231.211 88.7713C231.661 88.4829 231.755 88.5905 232.179 88.7315C230.089 90.1303 228.703 91.8744 226.582 93.1821C224.331 94.5701 221.824 95.0814 219.609 96.4468C218.69 97.4788 217.556 105.66 216.905 107.455C216.897 107.506 216.888 107.557 216.878 107.609C217.968 105.69 219.17 104.609 220.532 102.921C221.27 102.005 222.198 100.624 222.903 99.6293L223.043 100.669C221.541 102.836 220.043 104.579 218.471 106.647C217.8 107.529 216.753 109.835 216.248 110.917C218.562 109.539 224.385 105.516 226.786 105.383L226.882 105.736C221.841 107.748 221.138 108.36 216.757 111.467C216.206 110.943 216.169 111.055 215.595 110.294C216.483 107.827 218.077 99.3081 218.57 96.5021C215.991 97.5328 212.776 98.6906 211.492 101.262L210.648 100.771Z" fill="#E1D2BD"/>
<path d="M129.835 116.477C134.346 114.684 132.148 113.486 133.74 109.993C135.066 107.083 137.728 102.751 139.749 100.242L140.199 100.553C137.347 103.901 135.19 107.783 133.855 111.973C133.581 112.825 132.951 113.665 133.31 114.541C134.051 114.86 134.966 114.462 135.541 113.949C136.426 108.878 137.179 105.312 140.502 101.204L140.879 101.608C137.764 105.079 136.985 109.547 136.071 113.934C137.275 113.377 140.639 111.964 141.501 111.331L142.69 111.523C142.302 111.956 141.555 112.533 141.038 112.722C139.477 113.294 130.288 117.583 129.032 117.116C128.598 115.848 129.562 111.642 129.757 110.155C130.043 110.518 130.329 110.855 130.567 111.252C130.017 112.822 129.848 114.829 129.835 116.477Z" fill="#E1D2BD" fill-opacity="0.988235"/>
<path d="M208.327 125.301C208.665 124.335 210.164 121.095 210.212 120.385C210.427 117.229 210.37 113.902 210.461 110.721C210.523 108.552 210.1 108.005 211.072 105.922C210.938 109.095 211.182 111.754 211.327 114.908C211.376 115.972 211.137 117.244 211.361 118.155L211.572 118.271C212.215 117.024 212.889 115.793 213.598 114.581L214.219 115.116C213.191 116.956 212.321 118.581 211.466 120.517C214.849 117.293 218.85 115.407 223.136 113.53C223.668 113.296 226.665 112.602 227.36 112.44L227.516 112.516C227.189 113.064 226.501 113.151 225.896 113.302C220.906 114.552 210.027 120.08 209.211 125.674L209.025 125.403L208.327 125.301Z" fill="#E1D2BD"/>
<path d="M188.984 61.1279C188.857 60.4685 188.687 60.0641 188.98 59.4856C192.057 62.4764 199.308 69.6948 201.293 73.0319C201.078 73.5124 201.009 73.7108 200.689 74.1432C199.942 72.9174 198.602 71.6213 197.704 70.4452C195.616 67.7094 193.172 65.3101 190.659 62.953C192.259 67.1244 191.439 71.0928 192.273 74.8883C191.605 74.5365 191.693 74.3915 191.433 73.6732C191.46 70.7103 190.799 63.3992 188.984 61.1279Z" fill="#E1D2BD"/>
<path d="M144.603 53.0953L145.198 52.8262C146.057 54.7581 145.545 56.0365 145.989 57.3268C147.073 60.4787 149.639 65.6648 152.049 67.92L152.02 68.3583C151.718 68.5679 151.738 68.5502 151.368 68.5477C150.188 67.6228 149.352 66.9622 148.065 66.1704L148.299 65.6753C148.687 65.4914 148.58 65.5446 149.025 65.4803C147.614 62.5028 145.296 59.3253 142.579 57.4202L143.032 57.0143C143.323 57.1012 143.169 57.0948 143.494 57.0068C143.468 56.5139 142.515 55.3046 142.155 54.773C142.696 55.0759 142.876 55.2372 143.473 55.2788C144.037 55.6756 144.837 57.2597 145.203 57.9169C145.29 55.6886 145.25 55.2255 144.603 53.0953Z" fill="#E1D2BD"/>
<path d="M151.368 68.5478C151.738 68.5502 151.718 68.5679 152.02 68.3583L152.049 67.92C153.655 69.0428 156.096 69.7299 157.836 70.7864C157.675 69.8614 157.528 69.0707 157.458 68.1322C157.616 68.6205 157.804 69.5305 158.136 69.7669C158.276 69.4314 158.419 69.0572 158.585 68.7377C158.66 69.6403 158.714 70.3354 158.883 71.2276C162.636 75.0193 164.416 78.5895 165.786 83.6647C165.76 84.1133 165.705 84.6101 165.768 85.0489L165.654 84.8056C165.52 84.5265 165.595 84.616 165.453 84.4795C165.052 83.6358 164.697 82.0874 164.258 81.0752C162.575 77.1884 160.62 73.3515 156.752 71.2774C155.286 70.4913 152.435 69.4853 151.368 68.5478Z" fill="#E1D2BD"/>
<path d="M174.962 52.5449C174.881 51.6777 174.791 50.8798 174.631 50.0208C174.461 49.1108 172.985 45.5183 173.644 44.9295C174.039 45.0925 177.813 49.3771 178.243 49.9971C178.292 50.4377 178.375 50.9795 178.348 51.4147L177.897 51.1389L177.749 51.3142C178.385 52.9639 181.792 57.5903 182.306 59.327L181.916 59.8959C180.465 57.1562 178.81 54.4741 177.232 51.8053C176.698 50.9037 176.204 49.045 175.188 48.8313C175.237 49.8163 175.644 51.1449 175.691 52.1242L175.7 52.3537C175.604 52.3594 175.089 52.51 174.962 52.5449Z" fill="#E1D2BD"/>
<path d="M138.769 129.927C142.109 127.831 147.038 128.858 150.513 128.408C153.014 128.083 155.438 127.315 158.237 126.977C158.546 127.055 158.788 127.115 159.092 127.214L158.908 127.182L159.005 127.461C158.642 127.625 158.271 127.801 157.902 127.948C155.402 128.534 152.045 129.296 149.477 129.509C146.711 129.738 143.932 129.632 141.11 129.974C140.31 129.544 139.413 130.179 138.602 130.462L138.875 130.195L138.769 129.927Z" fill="#E1D2BD"/>
<path d="M131.084 62.2986C133.555 60.1078 135.953 61.0966 138.68 61.6554C142.766 62.4927 145.371 63.4788 149.025 65.4803C148.581 65.5447 148.687 65.4914 148.299 65.6753L148.065 66.1704C144.707 64.0502 142.54 63.6252 138.796 62.7896C137.573 62.5148 136.096 61.8562 134.847 61.8337C134.083 61.82 133.087 62.3443 132.206 62.4442L132.127 62.184C131.765 62.2152 131.443 62.2531 131.084 62.2986Z" fill="#E1D2BD"/>
<path d="M201.293 73.0319C202.295 74.577 203.327 76.1033 204.385 77.6107C206.468 80.6274 207.168 82.1536 206.845 85.9255C206.759 86.93 207 87.9108 206.753 88.9411C206.41 89.0507 206.288 89.0607 205.929 89.1101C205.747 87.2292 206.283 81.7731 205.296 80.7802C203.633 79.1062 202.126 75.9493 200.689 74.1432C201.009 73.7108 201.078 73.5124 201.293 73.0319Z" fill="#E1D2BD"/>
<path d="M117.095 70.0063C119.5 69.026 122.153 68.8234 124.399 67.4957C125.931 66.5906 127.103 64.988 128.535 63.8616C129.419 63.1652 130.078 62.834 131.084 62.2986C131.443 62.2531 131.765 62.2152 132.127 62.184L132.206 62.4442L132.265 63.1184L132.058 63.24C128.792 63.7897 127.768 66.8365 124.877 68.4079C122.29 69.8138 120.648 69.6733 118.222 70.5835C117.813 70.5828 117.725 70.6003 117.32 70.5011L117.095 70.0063Z" fill="#E1D2BD"/>
<path d="M182.306 59.327C184.083 61.6336 190.633 76.1067 191.203 79.0859L190.827 79.7404C189.906 77.4942 188.871 73.3347 186.934 72.0084L187.194 71.5395C187.41 71.4986 187.3 71.549 187.488 71.3279C185.929 67.595 183.841 63.4534 181.916 59.8959L182.306 59.327Z" fill="#E1D2BD"/>
<path d="M205.929 89.1101C206.288 89.0606 206.41 89.0506 206.753 88.9411C206.876 92.7673 207.463 95.8733 206.072 99.5684C205.362 101.459 204.124 104.095 203.871 105.999C203.6 105.646 203.407 105.109 203.223 104.681C203.161 103.354 205.3 99.4487 205.705 97.4954C206.374 94.2693 205.671 92.1332 205.91 89.2997L205.929 89.1101Z" fill="#E1D2BD"/>
<path d="M142.418 70.2448C144.51 72.8344 147.367 75.6065 150.331 77.1536C149.849 77.4048 149.761 77.4504 149.248 77.6126C147.747 77.6924 145.945 77.5618 144.421 77.4922C144.341 76.7046 144.259 77.0078 144.693 76.3875C145.146 76.4581 145.805 76.6128 146.121 76.2548C145.606 75.7812 144.809 75.6077 144.116 75.382L144.711 74.8424C145.261 75.0751 144.997 75.0557 145.522 75.0034C145.502 74.8325 142.629 71.6549 142.207 71.0676L142.104 70.9215L142.418 70.2448Z" fill="#E1D2BD"/>
<path d="M200.469 100.884C200.778 97.4207 201.67 93.8486 202.286 90.3558C202.932 86.6894 202.985 82.0876 203.543 78.6596C204.093 81.3433 203.7 82.2345 203.637 84.8014C203.499 90.4173 201.63 95.6744 201.073 101.152L200.469 100.884Z" fill="#E1D2BD"/>
<path d="M184.185 91.6786C185.682 93.3294 187.674 94.9994 189.564 96.1677C192.074 97.7182 194.84 98.311 196.752 100.684C196.528 101.06 196.511 101.139 196.208 101.46C194.095 98.763 191.881 98.7654 189.097 96.9547C186.827 95.4782 185.087 93.789 183.159 91.9255L184.185 91.6786Z" fill="#E1D2BD"/>
<path d="M210.648 100.771L211.492 101.262C210.777 105.818 208.31 109.746 205.232 113.098L204.898 112.222C205.786 110.805 206.944 110.143 207.862 108.379C209.193 105.821 209.368 103.211 210.648 100.771Z" fill="#E1D2BD"/>
<path d="M127.935 109.984C128.163 107.987 130.903 104.97 132.276 103.543C132.85 103.723 132.822 103.739 133.262 104.176C131.045 106.743 131.054 107.965 130.567 111.252C130.329 110.855 130.043 110.518 129.757 110.155C129.672 109.221 130.085 108.19 130.239 107.186C129.21 108.691 128.931 109.222 128.368 110.948C128.287 110.713 128.049 110.232 127.935 109.984Z" fill="#E1D2BD"/>
<path d="M209.581 125.518C212.622 121.773 216.935 118.778 221.624 117.605C221.671 117.592 228.28 116.366 227.885 116.361C227.659 116.613 227.465 116.897 227.184 117.036C220.2 118.419 214.138 119.99 209.852 126.376L209.581 125.518Z" fill="#E1D2BD" fill-opacity="0.796078"/>
<path d="M196.949 90.7024C197.418 85.4311 198.59 80.1914 198.378 74.8952C198.349 74.2041 198.337 73.6337 198.432 72.9445L198.556 73.0015C199.848 78.2095 198.154 85.1517 197.609 90.4902L196.949 90.7024Z" fill="#E1D2BD"/>
<path d="M176.391 69.9453C179.673 69.7107 184.652 74.4507 187.015 76.3885C188.693 77.7628 189.882 79.351 191.132 81.0779L190.253 81.0617C187.237 77.2958 184.078 74.2171 179.96 71.6214C178.85 70.9216 177.539 70.8957 176.471 70.1123L176.391 69.9453Z" fill="#E1D2BD" fill-opacity="0.796078"/>
<path d="M106.419 76.4554C106.6 76.1933 106.784 75.9334 106.971 75.6759C108.355 73.777 111.396 71.6496 113.637 71.3026L114.353 71.7916C114.184 72.5209 113.108 72.4364 112.734 73.1202L112.616 73.3294C112.555 73.4224 112.494 73.5154 112.433 73.6083C111.735 73.8094 110.041 74.2021 109.695 74.7827L109.677 74.9047L109.541 75.3575C108.745 75.4049 107.222 76.1167 106.419 76.4554Z" fill="#E1D2BD"/>
<path d="M137.603 47.5535L137.781 47.2952C138.213 47.5791 138.544 47.8195 138.956 48.132C140.491 50.0142 142.437 53.1079 143.473 55.2788C142.876 55.2372 142.696 55.0759 142.155 54.773C141.839 53.3747 139.781 52.7649 138.601 52.151L139.284 51.8173C139.878 52.133 139.791 52.2105 140.342 52.1561C140.386 51.5151 138.136 48.4704 137.603 47.5535Z" fill="#E1D2BD" fill-opacity="0.796078"/>
<path d="M140.161 34.2873C140.684 34.8674 140.751 34.9629 141.074 35.6727C140.697 36.6674 140.844 37.5439 140.68 38.0168C140.806 40.5283 140.658 42.4754 141.73 44.8476C141.54 45.4838 141.313 45.557 141.301 46.2415C140.215 42.5312 139.704 42.6277 139.847 38.4602C139.663 37.5089 140.054 35.4382 140.161 34.2873Z" fill="#E1D2BD"/>
<path d="M140.161 34.2873C140.684 34.8674 140.75 34.9629 141.074 35.6727C140.697 36.6674 140.844 37.5439 140.68 38.0168L140.461 37.9192C140.445 37.5909 140.435 37.2462 140.161 37.0448C140.12 37.685 140.125 37.8884 139.847 38.4602C139.663 37.5089 140.054 35.4382 140.161 34.2873Z" fill="#E1D2BD"/>
<path d="M220.042 129.644C220.666 129.185 220.535 129.121 221.136 129.145C219.699 131.849 219.409 131.559 216.375 131.185C214.346 130.934 210.798 133.784 209.179 135.065L208.505 134.772C210.801 133.119 212.859 130.77 215.735 130.66C216.858 130.617 217.978 130.613 219.098 130.557C219.503 130.537 219.832 129.958 220.042 129.644Z" fill="#E1D2BD" fill-opacity="0.796078"/>
<path d="M182.019 53.1229C183.875 54.9272 186.007 56.6567 187.682 58.2982L187.058 59.2232C185.128 57.537 182.636 55.4467 180.857 53.6248C181.188 53.4127 181.645 53.2651 182.019 53.1229Z" fill="#E1D2BD"/>
<path d="M140.741 27.409L141.864 27.2135C142.824 31.0481 141.803 32.1172 141.074 35.6727C140.75 34.9628 140.684 34.8674 140.161 34.2873C140.887 31.7849 141.64 29.8987 140.741 27.409Z" fill="#E1D2BD"/>
<path d="M159.987 81.3222C159.141 80.0715 154.553 71.9387 154.694 70.9626L154.938 70.9026C156.319 72.2485 159.094 78.7944 160.655 80.9133L159.987 81.3222Z" fill="#E1D2BD"/>
<path d="M165.389 32.3155L165.771 32.4932C163.32 35.4869 160.851 38.8413 159.297 42.4313L158.548 42.4411C159.516 39.327 163.044 34.6613 165.389 32.3155Z" fill="#E1D2BD"/>
<path d="M137.752 78.2608C140.242 76.9803 141.93 76.8661 144.693 76.3875C144.259 77.0077 144.341 76.7046 144.421 77.4922C141.801 77.8067 138.703 78.594 135.999 79.035C135.476 79.158 135.465 79.1445 134.954 79.1262L135.058 78.949C136.194 78.4445 136.502 78.4184 137.752 78.2608Z" fill="#E1D2BD"/>
<path d="M135.999 79.035C135.476 79.158 135.465 79.1445 134.955 79.1262L135.058 78.949C136.194 78.4445 136.503 78.4184 137.752 78.2608C137.085 78.6993 136.744 78.7794 135.999 79.035Z" fill="#E1D2BD"/>
<path d="M132.265 63.1184C134.982 63.9868 139.667 68.6211 142.418 70.2448L142.104 70.9215C140.867 69.6624 132.329 63.725 132.058 63.24L132.265 63.1184Z" fill="#E1D2BD"/>
<path d="M141.73 44.8476C142.755 47.7629 144.22 49.8468 145.198 52.8262L144.603 53.0953C143.516 49.8331 142.014 48.9744 141.3 46.2415C141.313 45.5569 141.54 45.4838 141.73 44.8476Z" fill="#E1D2BD" fill-opacity="0.796078"/>
<path d="M124.531 116.771C127.227 117.87 127.383 116.517 127.409 114.098C127.426 112.554 127.534 111.469 127.935 109.984C128.049 110.232 128.287 110.713 128.368 110.948C127.869 113.557 128.507 115.213 127.224 117.772C126.023 117.921 125.529 118.04 124.38 117.58L124.531 116.771Z" fill="#E1D2BD"/>
<path d="M132.68 50.2423L133.907 49.9586C135.994 50.4863 137.375 51.2785 139.284 51.8173L138.601 52.1511C138.033 51.9675 138.255 51.9147 137.857 52.1063C138.024 52.6073 138.143 52.6443 138.565 52.9544L137.763 53.1835C136.315 51.9833 134.383 51.0279 132.68 50.2423Z" fill="#E1D2BD"/>
<path d="M168.371 38.211L168.691 38.5158C165.76 41.5574 164.693 41.8493 162.241 45.8332C162.025 45.6732 161.737 45.3716 161.535 45.1755C163.199 42.9557 166.172 39.943 168.371 38.211Z" fill="#E1D2BD"/>
<path d="M161.433 137.564C159.792 136.071 158.654 134.069 157.355 132.292C156.802 131.534 154.961 129.87 155.101 128.968C156.73 130.013 159.532 134.859 161.716 137.053L161.433 137.564Z" fill="#E1D2BD" fill-opacity="0.984314"/>
<path d="M210.667 127.87C213.279 126.014 215.119 125.89 218.323 125.829L218.075 126.754C215.596 126.445 213.097 126.682 211.043 128.248L210.667 127.87Z" fill="#E1D2BD" fill-opacity="0.796078"/>
<path d="M215.595 110.294C216.168 111.055 216.206 110.943 216.757 111.467C215.666 112.853 215.122 113.583 214.219 115.116L213.598 114.581C213.812 113.795 215.178 111.2 215.595 110.294Z" fill="#E1D2BD"/>
<path d="M204.725 132.183C204.425 131.065 203.847 125.435 203.707 124.114C203.868 124.645 204.386 126.952 204.468 127.102L204.665 126.558C204.86 127.641 205.617 131.351 205.399 132.222L205.119 132.25L205.003 132.588L204.946 132.461C204.752 132.353 204.837 132.434 204.725 132.183Z" fill="#E1D2BD"/>
<path d="M136.522 100.261C136.863 100.341 136.712 100.282 136.98 100.422L137.16 100.958C135.851 101.811 134.184 102.877 133.262 104.176C132.823 103.739 132.85 103.723 132.277 103.543C133.465 102.389 136.174 100.692 136.522 100.261Z" fill="#E1D2BD"/>
<path d="M178.081 64.5917C181.031 65.7478 182.678 67.7045 185.138 69.6312L185.046 70.2666C183.877 68.9133 179.608 65.9096 177.965 64.9217L178.081 64.5917Z" fill="#E1D2BD" fill-opacity="0.956863"/>
<path d="M161.535 45.1756C161.737 45.3716 162.025 45.6733 162.241 45.8332C161.968 46.2791 161.193 47.4749 160.99 47.8884L160.052 49.4679C159.557 49.3673 159.591 49.3645 159.184 49.0562C159.406 48.5693 159.525 48.4038 159.83 47.9572C160.189 47.1773 160.999 45.8493 161.535 45.1756Z" fill="#E1D2BD"/>
<path d="M159.83 47.9572L160.474 47.6691L160.99 47.8884L160.052 49.4679C159.557 49.3673 159.591 49.3645 159.184 49.0562C159.406 48.5693 159.525 48.4038 159.83 47.9572Z" fill="#E1D2BD"/>
<path d="M178.243 49.9971C178.872 50.5477 179.529 51.1092 180.143 51.6706C181.035 52.2031 181.346 52.3231 182.019 53.1228C181.645 53.265 181.188 53.4127 180.858 53.6247C180.545 53.2452 180.053 52.871 179.666 52.5502C179.122 52.1329 178.821 51.9061 178.348 51.4147C178.375 50.9795 178.292 50.4378 178.243 49.9971Z" fill="#E1D2BD"/>
<path d="M138.565 52.9544C139.956 54.1474 141.821 55.6921 143.032 57.0143L142.579 57.4202C141.243 56.0759 139.214 54.4158 137.763 53.1834L138.565 52.9544Z" fill="#E1D2BD" fill-opacity="0.796078"/>
<path d="M109.677 74.9047C112.057 74.902 113.477 75.4126 115.761 75.7824L116.401 76.4558C113.831 76.2975 111.823 75.4635 109.541 75.3575L109.677 74.9047Z" fill="#E1D2BD"/>
<path d="M161.718 52.3995L162.174 53.535C161.777 54.4997 161.227 55.9628 160.714 56.8245L160.079 56.6259C160.646 55.2127 161.11 53.8178 161.718 52.3995Z" fill="#E1D2BD"/>
<path d="M150.331 77.1536C151.494 77.5043 152.886 78.1643 153.922 78.7977L153.573 79.6278C153.081 78.8356 150.183 77.8945 149.249 77.6126C149.761 77.4504 149.849 77.4048 150.331 77.1536Z" fill="#E1D2BD"/>
<path d="M153.63 51.441C154.05 52.1988 155.511 54.8706 155.748 55.5821C154.756 54.9526 155.195 54.3168 153.962 54.1022C153.546 53.5913 153.086 52.6719 152.821 52.0793C153.329 51.9346 153.212 51.9168 153.63 51.441Z" fill="#E1D2BD"/>
<path d="M203.223 104.681C203.407 105.109 203.599 105.646 203.871 105.999C203.807 106.86 203.778 107.443 203.457 108.275C203.152 108.561 203.347 108.61 202.879 108.93L202.33 108.778C202.951 107.39 202.854 106.16 203.223 104.681Z" fill="#E1D2BD"/>
<path d="M160.976 28.9371C161.41 28.16 163.917 24.2159 164.533 23.85L164.677 23.9677C164.433 25.3832 162.459 27.157 161.608 28.8466L160.976 28.9371Z" fill="#E1D2BD" fill-opacity="0.615686"/>
<path d="M145.59 67.9262C144.516 67.0653 142.309 65.3551 141.577 64.3246C142.353 64.397 145.203 66.8623 145.9 67.4758L145.59 67.9262Z" fill="#E1D2BD" fill-opacity="0.984314"/>
<path d="M126.441 23.2174C126.853 24.4428 127.049 25.1122 127.304 26.3732L126.464 26.726L125.849 24.6396C126.559 24.239 126.388 23.9973 126.441 23.2174Z" fill="#E1D2BD"/>
<path d="M121.915 116.588C122.49 116.562 123.065 116.544 123.64 116.536L124.531 116.771L124.38 117.58L122.572 117.328L121.227 117.247C121.427 116.804 121.434 116.908 121.915 116.588Z" fill="#E1D2BD"/>
<path d="M121.915 116.588C122.49 116.562 123.065 116.544 123.64 116.536C123.297 116.802 122.936 117.1 122.572 117.328L121.227 117.247C121.427 116.804 121.434 116.908 121.915 116.588Z" fill="#E1D2BD"/>
<path d="M187.682 58.2981C188.126 58.7311 188.491 59.0928 188.98 59.4856C188.687 60.0641 188.857 60.4685 188.984 61.1278C188.279 60.3433 187.848 59.924 187.058 59.2232L187.682 58.2981Z" fill="#E1D2BD"/>
<path d="M142.657 109.567C142.916 109.555 143.361 109.551 143.598 109.503C143.395 110.445 143.222 110.715 142.69 111.524L141.501 111.331C142.143 110.641 142.297 110.433 142.657 109.567Z" fill="#E1D2BD"/>
<path d="M142.86 107.412C143.136 107.626 143.337 107.754 143.545 108.04L143.919 108.228L143.598 109.503C143.361 109.551 142.916 109.555 142.658 109.567C142.77 108.809 142.811 108.17 142.86 107.412Z" fill="#E1D2BD"/>
<path d="M159.184 49.0561C159.591 49.3645 159.557 49.3673 160.052 49.4678C159.832 49.859 159.561 50.3828 159.313 50.7428L158.34 50.7646C158.515 50.2309 158.908 49.5657 159.184 49.0561Z" fill="#E1D2BD"/>
<path d="M185.138 69.6312C185.916 70.2221 186.251 70.439 186.893 71.1885L187.081 71.4055C187.12 71.4499 187.157 71.4947 187.194 71.5395L186.934 72.0084C186.308 71.4237 185.68 70.8429 185.046 70.2666L185.138 69.6312Z" fill="#E1D2BD"/>
<path d="M168.371 38.211C168.849 37.6165 169.066 37.569 169.78 37.2692L169.84 37.5772C169.492 37.8474 168.986 38.2093 168.692 38.5159L168.371 38.211Z" fill="#E1D2BD" fill-opacity="0.647059"/>
</svg>
